<svg version="1" xmlns="http://www.w3.org/2000/svg" width="1518.667" height="1518.667" viewBox="0 0 1139.000000 1139.000000"><path d="M581.8.5c-.2.1-5.6.6-12 .9-6.5.4-12.8.9-14 1.1-1.3.2-5.4.6-9.2 1-3.8.4-7.9.8-9 1-1.2.2-4.3.6-7.1 1-4.6.5-6.7.8-13.5 1.9C412.1 24 311.4 71.8 229 143.8c-14.8 13-46.1 45.2-58.5 60.3-46.1 55.8-78.4 111.8-101.1 175.6-7.8 22-18.4 59.5-20.9 74.1-.3 1.8-1.2 6.3-1.9 10-1.4 6.7-2.5 12.8-3.1 16.9-.2 1.3-.6 4.2-1 6.5-.4 2.4-.9 5.4-1 6.8-.6 6.4-1.8 16.7-2.1 18.3-2.5 14-2.5 92.2.1 105.5.2 1.1.6 5.5 1 9.8.3 4.3.8 9 1 10.4.3 1.4.7 4.1 1 6 3.7 26.2 7.6 46.6 13.1 67.9 1.9 7.5 3.7 14.3 3.9 15.1 1 4.2 7.9 26.1 10.9 34.7 16.3 46.9 37.6 89.5 64.3 128.8 30.8 45.4 56.5 73.7 103.8 114.6 25.9 22.4 57.5 45.2 79.8 57.8 1.8 1 7.3 4.1 12.4 7 24.8 14 59 29 88.8 38.9 21.4 7.2 51.8 15.3 66.5 17.8 1.4.2 3.5.7 4.8.9 3.6.9 17.9 3.2 26.7 4.5 4.4.6 8.9 1.3 10 1.5 1.1.1 5.6.6 10 1s9.1.9 10.5 1.1c14.4 2.4 84 2.4 103 0 1.9-.3 6.2-.7 9.5-1.1 9.1-.8 13.6-1.4 18-2 2.2-.4 5.1-.8 6.5-1 2.3-.4 12.4-2 19.5-3.2 3.4-.5 21.4-3.9 26-4.8 19.7-4 47.1-11.7 65.5-18.6 11.1-4.2 34.3-15 33.6-15.6-.2-.2-4.2 1.1-8.7 3-26.2 10.8-77 25.4-101.1 29.1-2.1.3-5.7 1-8 1.5-4.5 1-10 1.8-23.3 3.5-2.8.4-6.6.9-8.5 1.1-9.7 1.3-15.1 1.7-35.5 3-13.9.9-58.8.3-72.5-.9-4.1-.4-9.7-.9-12.5-1.2-4.5-.4-7.8-.7-18-2-1.6-.2-4.8-.6-7-.9-2.2-.4-5.3-.9-7-1.1-22.1-3.3-49.8-9.7-72-16.5-12.4-3.8-28.9-9.5-33.3-11.4-1.8-.8-3.7-1.5-4.2-1.5s-3.3-1.1-6.2-2.4c-2.9-1.3-9.6-4.2-14.8-6.4-20.2-8.5-45.7-21.7-67-34.7-54.4-33-103.7-75.5-143.4-123.5-20.7-25.1-38.7-50.8-53-76-4.3-7.4-8.1-14.2-8.6-15-1.7-2.7-19-37.8-19-38.5 0-.3-1-2.7-2.1-5.3-12.5-27.2-27.2-74.6-33.6-107.7-.8-4.4-1.6-8.5-1.7-9-.2-.6-.6-3.3-1-6-.4-2.8-1-6.1-1.2-7.5-2.5-15-5-39.5-6-58.5-.5-10.9-.5-46.3.1-55.5.6-9.8 1.5-22.7 1.9-26.5 1.4-12.9 1.9-17.1 3.1-25.5 1.2-7.8 4.8-28.1 5.7-32 .5-2.5 1.2-5.8 1.5-7.3.5-3 5-21.2 7.7-31.2 4.8-17.5 17.1-52 25.2-70.5 6.4-14.4 22.8-46.3 30.8-59.8 7.7-12.9 28.1-43.8 31-46.8.6-.6 2-2.4 3.1-3.9 6.6-9.2 17.4-22.3 30.5-37 8.7-9.8 35.7-36.3 46.5-45.6 33.1-28.6 64.5-50.3 100.3-69.5 44.6-23.9 89.8-41 137.2-51.9 15.1-3.4 35.8-7.2 49.5-9 2.8-.4 6.1-.8 7.5-1 1.4-.2 5.7-.6 9.5-1 3.9-.3 8.1-.8 9.5-1 15.1-2.3 89.4-2.3 98 0 .8.2 4.7.7 8.5 1 3.9.3 8.4.8 10 1 1.7.2 5 .7 7.5 1 2.5.3 5.6.7 7 .9 1.4.3 4.3.7 6.5 1 2.2.4 7.4 1.3 11.5 2.1s8.6 1.7 10 1.9c20.1 3.6 56.6 14 80.6 23 52.5 19.5 96 43.2 160.9 87.7 6.6 4.5 14.4 9.8 17.4 11.7l5.4 3.5-.7-3.3c-2.5-12.6-35.1-46.4-66.1-68.6-45.1-32.1-105.2-58.8-168-74.6-4.4-1.1-9.1-2.2-10.5-2.4-1.3-.3-6-1.3-10.5-2.3-4.4-1-9.6-2.2-11.5-2.5-1.9-.3-4.4-.8-5.5-1-4.2-.8-28.2-4.5-33-5-2.7-.4-6.3-.8-8-1-1.6-.3-6.4-.7-10.5-1.1-4.1-.3-9.7-.8-12.5-1.1-5.2-.5-65.2-1.4-65.7-.9z"/><path d="M751 132.6c3 1.4 7.3 2.8 9.4 3 2.2.2 4.2.8 4.5 1.2.3.5 1.8 1.2 3.3 1.6 1.6.3 2.7 1.1 2.5 1.7-.1.7.4 1.4 1.1 1.6.6.3 1.2 0 1.2-.7s.5-.7 1.4.2c1.2 1.1 1.1 1.4-.8 1.9-1.8.5-1.5.8 1.9 1.7 2.2.7 5.6 1.2 7.5 1.3 3.7 0 8.7 1.7 6 1.9-.8.1.5.9 2.9 1.9 2.8 1.1 3.9 2 3 2.4-1 .4-.8.6.5.6 1.1.1 2.7.7 3.5 1.5 2.5 2.1 11.4 6.6 13.2 6.6.9 0 2.7.8 4 1.8 1.3 1 5.3 2.9 8.8 4.3 3.9 1.4 7.2 3.5 8.4 5.1 1.3 1.7 3 2.8 4.5 2.8s2.6.7 2.9 2c.3 1.1 1.3 2 2.2 2 .9 0 2.2.9 2.8 1.9.7 1.1 2.5 2.2 4.2 2.6 1.6.3 4 1.6 5.3 2.8 3.7 3.4 7.8 5.8 8.8 5.2.5-.3 1.3.3 1.9 1.3.5.9 4.1 3.5 8 5.7 3.9 2.2 7.1 4.4 7.1 5 0 .5 3 2.8 6.6 5 3.5 2.2 7.4 5.4 8.5 7.1 1 1.8 3.4 3.9 5.2 4.7 1.7.9 4.3 2.7 5.7 3.9 1.4 1.3 6.3 5.5 11 9.2 4.7 3.8 9.1 8 9.9 9.4 1.4 2.7 6.1 7 9.4 8.7 1.1.5 1.9 1.4 1.8 1.8-.2.5 1.9 2.8 4.6 5.3 2.6 2.4 5.2 4.7 5.6 5.1 3 2.9 8.4 9.3 8 9.6-.2.3 1.5 2.5 3.9 4.9 6.3 6.6 9.1 10 10.6 12.9.8 1.5 3.1 4.9 5.2 7.6 2 2.7 5 7.1 6.5 9.7 1.5 2.6 3.4 5 4.1 5.3.8.3 1.4 1 1.4 1.6 0 1.8 5.2 11.7 6.1 11.7 2 0 6.4 6.4 11.5 16.5 3.1 6 6 11.4 6.5 11.9.5.6.9 1.7.9 2.5s1 2.6 2.3 3.9c1.2 1.4 1.5 2.2.7 1.7-.8-.4-.4.5 1 2.1s4.3 6.5 6.5 10.9 4.2 8.2 4.5 8.5c1.4 1.4 5 10.3 4.5 11.1-.4.5-.2.9.2.9.5 0 .9 1 .9 2.2 0 1.3 1.2 4.8 2.6 7.8 3.5 7.4 6.3 14.3 6.2 15 0 .3 1.2 3.4 2.8 6.9 1.5 3.4 3.1 7.7 3.3 9.4.3 1.7 1.5 5.2 2.7 7.9 1.1 2.6 1.8 5.7 1.5 6.8-.3 1.1.3 3 1.3 4.3 1.2 1.5 2.1 4.8 2.5 8.8 1.1 12.2 1.5 15.4 2.4 20.4.5 2.7 1.4 7.7 2 11 .6 3.3 1.3 7.1 1.6 8.5 1.7 8.5 2.7 16.8 3.1 26.3.2 6 .8 11.6 1.2 12.5.7 1.4 1.3 16 1.5 36.2.1 8.3-1.2 39.8-1.7 41-.3.8-.8 2.8-1.1 4.5-.3 1.6-.7 3.4-.9 4-.5 1.9-2.5 12.7-3.1 17-.2 1.6-.7 4.1-1 5.5-.3 1.4-1 4.5-1.5 7-1.5 7.2-1.7 8.2-3.3 14.5-.8 3.3-1.7 8.3-2 11-.7 6.9-6.5 29.2-8.9 33.9-1.1 2.1-2.2 5-2.4 6.4-.3 1.3-1.2 3.8-2 5.4-.8 1.6-1.2 3.3-.9 3.8.3.6.1 1-.6 1s-1 .3-.6.6c.3.4 0 1.2-.7 2-.8.7-1.7 3.3-2 5.9-.4 2.5-1 4.5-1.4 4.5-.9 0-5.8 11.2-5.4 12.4.5 1.5-.9 4.6-2 4.3-.7-.1-1.2.7-1.3 1.8-.1 1.1-.2 2.8-.3 3.7-.1 1-1.7 3.5-3.6 5.5-3.1 3.5-5.3 7.8-4.8 9.6.1.4-1.3 2.9-3.2 5.6-1.9 2.6-4.5 6.7-5.8 9.1-3.3 6-4.2 7.6-5.6 9.2-.6.8-.9 1.7-.6 2.1.9.9-1.6 4.7-3.1 4.7-.8 0-1.2.6-.9 1.3.6 1.6-24.1 34-32.7 42.8-.9.9-4.9 5.8-8.8 10.8-4 4.9-9.1 10.7-11.4 12.7-2.3 2-3.5 3.3-2.7 2.9 3.1-1.8-1.4 2.7-11.1 11.1-5.2 4.5-12.2 10.9-15.5 14.2-3.3 3.2-7 6.3-8.3 6.7-1.2.4-6.3 4.4-11.1 8.8-9.9 9.1-14.3 12.7-15.8 12.7-.6 0-1.8.8-2.8 1.7-1 1-2 1.8-2.3 1.8-.4 0-3.1 1.6-6.1 3.6-3 2-6.6 4-8 4.4-1.4.4-4.7 2.4-7.5 4.4-7.4 5.2-18.5 11.6-30.5 17.5-3 1.4-7.3 3.7-9.5 5.1-2.2 1.4-4.8 2.5-5.8 2.5s-3.5 1.1-5.5 2.5-4.1 2.5-4.6 2.5-3.9 1.3-7.5 2.9c-3.6 1.6-10.2 3.7-14.6 4.7-4.4.9-10.5 2.6-13.5 3.6-15 5.2-59.2 15.1-76.5 17.2-2.7.4-6.6.9-8.5 1.1-1.9.2-6 .7-9 1-3 .3-7.3.8-9.5 1-24.7 2.6-68.7 2.2-105-1-23.4-2.1-34.4-2.4-36.7-1.1-1.1.7-2.1.6-3-.1-1-.9-1.3-.6-1.4 1.2-.1 1.3.4 2.6 1.2 2.9.8.3 1.4.1 1.4-.5s.9-.5 2.3.2c1.2.7 4.5 1.3 7.4 1.3 5.8.1 7.1.9 5.4 3-1 1.2-.9 1.4.8.9 1.2-.3 2.1-.1 2.1.5 0 1 2.9 2.1 7 2.7 1.4.2 3.4.6 4.5.9 1.1.2 2.8.5 3.8.5 1 .1 1.5.5 1.2 1.1-.3.5.4 1.2 1.7 1.5 4.7 1 8.4 1.7 12.7 2.1 2.5.2 5 .9 5.7 1.5.8.6 3.1.9 5.3.6 2.2-.2 3.8-.1 3.6.3-.3.4.8 1 2.3 1.3 1.5.3 8.3 1.9 15.2 3.6 24.3 5.9 65.2 8.1 87 4.7 1.4-.2 5.2-.7 8.5-1.1 3.3-.4 7.2-1.3 8.7-2.1 1.5-.8 3.7-1.3 5-1.2 6.1.3 22.8-2.7 45.2-8.3 19.5-4.9 28.5-7.8 50.2-16.4 20.4-8.1 22.4-9 38.9-17.2 15.7-7.8 20.7-10.6 20.7-11.9-.1-1.1 3.7-3.3 5.8-3.4.8 0 5.2-2.5 9.7-5.5 4.6-3 8.5-5.5 8.8-5.5.9 0 30.7-20.7 33.5-23.2 4.1-3.7 10.4-9.1 15-12.8 5.4-4.3 13-11.6 13-12.4 0-.3 1.6-2 3.6-3.8 8-7.3 14.3-13.7 20.4-20.8 3.6-4.1 7-7.8 7.5-8.2 2.3-1.5 10.2-9.6 13.5-13.8 1.9-2.5 3.7-4.7 4-5 1.9-1.7 17.3-23.6 18.1-25.8.5-1.4 1.9-3.2 2.9-3.9 1.1-.8 2-2.4 2-3.6 0-2.9 1.5-5.1 2.8-4.3.6.3.8-.1.6-1.1-.3-1.2.3-2.2 1.8-2.8 1.6-.7 4.6-5.4 9.3-14.6 3.9-7.5 8.5-15.7 10.3-18.3 3.6-5.3 3.8-5.8 1.7-4.9-1.3.5-1.4.2-.4-2.1.7-1.4 1.7-2.6 2.3-2.6.8 0 9.4-16.2 14.5-27.4.2-.5-.1-.6-.7-.2-1.9 1.1-1.4-.3 1.9-6 1.6-3 3.2-6.6 3.5-8.1.6-3.4 1.3-4.5 2.5-3.8.5.4.9 0 1-.7.2-4.2 1.2-7.6 5.9-19.8 7.5-19.6 8.7-23.2 9.3-27.6.3-2.1.8-4.6 1.1-5.4.3-.8 1.7-8.3 3.1-16.5 1.4-8.3 2.8-16.1 3.1-17.5.3-1.4.8-7.9 1.1-14.5.3-7.1 1-12.4 1.7-13 .6-.6 1.2-2.8 1.3-5 .3-5.1.7-6.7 1.7-8.3.8-1.3 1.9-20 1.8-30.4-.1-2.6-.8-7-1.6-9.9-.9-2.9-1.6-6.7-1.6-8.5 0-1.8-.4-3.4-1-3.6-1.5-.5-2.9-10.4-2.7-18.8.2-5.3-.2-8.7-1.4-11.4-1-2.3-1.4-4.7-1-5.5 1-2 .6-7.8-.8-11.3-.5-1.5-.7-2.9-.3-3.2 1.2-.7.4-8.8-.9-10-.9-.8-1-.8-.5.1.4.7.2 1.3-.3 1.3-.6 0-1.2-.6-1.3-1.3 0-.6-.2-2.3-.4-3.7-.3-3.1-1.2-8.7-1.9-12-.3-1.4-.8-4.1-1.1-6-.9-5.6-1.5-7.1-2.4-6.5-.5.3-1.8-1.5-2.9-4.1-2.3-5.2-2.9-11-.9-9.8.7.4.2-.6-.9-2.2-1.2-1.6-2.6-5.6-3.2-8.9-1.3-7.1-1.3-6.8-.1-6 2.5 1.5-.6-7.5-3.2-9.3-1.7-1.2-1.7-1.5-.4-2.5 1.4-1.1 1.4-1.6.1-4.2-2.2-4.8-3.9-11.8-3.6-14.9.2-1.8-.1-2.6-.8-2.1-.7.4-2.1-1.6-3.7-5.1-1.4-3.1-3.9-7.7-5.5-10.1-1.7-2.4-2.7-4.8-2.3-5.5.4-.6.3-.8-.3-.5-1.6 1-2.5-2.3-1.2-3.9.9-1.1.8-1.4-.1-1.4-.7 0-1-.7-.7-1.5.4-.8.2-1.7-.4-2-.5-.4-.6-1.2-.3-1.8.4-.7.4-.9-.1-.5-.5.5-2.3-2.2-4.1-6-1.8-3.7-5.4-8.9-8.1-11.7-2.6-2.7-4-4.3-3-3.6 1.6 1.3 1.7 1.2.7-1.3-.5-1.5-.8-3.2-.4-3.7.3-.5.1-.9-.4-.9s-1.5-1.1-2.2-2.5c-.7-1.4-1.9-2.5-2.5-2.5-1.4 0-5.4-7.1-4.9-8.6.3-.5-1.4-2.5-3.5-4.4-2.2-1.8-3.8-3.7-3.5-4.2.4-.5-.3-1.9-1.3-3.1-1.1-1.2-3.1-4.2-4.4-6.6-1.3-2.4-3.6-5.7-5.2-7.4-2-2.2-2.5-3.3-1.7-4.3.9-.9.6-1.5-.8-2.3-1.4-.8-1.9-1.9-1.7-3.8.3-2.7-1.7-6.3-5.8-10.8-1.7-1.9-1.8-1.9-1.1-.1.4 1.1-3.1-1.1-8.4-5.3-5.1-4-9.2-8-9.2-8.8 0-.9-1.2-3.7-2.7-6.2-2.1-3.6-2.8-4.2-3.3-2.7-.5 1.4-1.5.6-5.3-4.3-2.6-3.4-4.7-6.4-4.7-6.9 0-.4-2.2-2.2-4.9-4-2.6-1.8-5.4-4.4-6.1-5.7-1-1.8-1.6-2.2-2.1-1.3-.6.9-1 .7-1.5-.7-1.3-3.4-7.3-9.9-12.7-13.6-2.9-2-5.2-4-5.2-4.5-.1-1.6-4.9-6-9.8-8.9-2.7-1.5-5.2-3.8-5.7-5-1.1-3-9.5-9.7-15.5-12.5-2.7-1.2-6-2.7-7.2-3.3-1.3-.6-2.5-1.8-2.9-2.9-.3-1.1-1.5-1.8-3.1-1.8-1.9 0-2.4.4-1.9 1.6.6 1.5.4 1.5-1.6.1-1.3-.8-2.2-2.1-2-2.7.2-.8-.5-1.1-1.7-.7-1.3.3-2.8-.4-4.2-1.9-1.9-2.1-2-2.4-.5-2.4.9 0 1.4-.5 1.1-1-.4-.7.3-.9 2.2-.5 2.8.5 2.8.5-.4-1.2-1.8-.9-3.3-2.2-3.3-2.9 0-.7-.5-1.6-1.2-2-.7-.5-.9-.2-.5.8.5 1.4.1 1.5-2.5.7-1.7-.4-3.4-.6-3.9-.4-.4.3-1 .1-1.4-.5-.3-.5-2-1-3.7-1-2.1 0-3.1-.6-3.5-2-.3-1.1-.9-2-1.3-2-.5 0-2.1-1.3-3.6-2.9-1.5-1.6-3.2-2.7-3.8-2.5-.6.2-1.8-.1-2.6-.6-1.3-.9-1.3-1.1 0-1.9 1.1-.8.9-1.2-1.3-2-3.7-1.4-5-1.4-4.1.1.5.8.2.9-1.2.3-1-.4-2.9-1-4.1-1.2-1.3-.3-2.3-1-2.3-1.5s-.4-.7-.9-.4c-.4.3-1.6-.3-2.6-1.4-1-1.1-3.1-2-4.7-2-1.5 0-2.8-.4-2.8-1 0-1-9.6-6.4-11.5-6.5-.5-.1-2.2-.8-3.6-1.8-3.7-2.5-16.3-6.6-19.9-6.5-2 .1-3.8-.7-5.2-2.2-1.7-1.8-1.8-2.2-.5-1.7.9.3 1.9.2 2.2-.3.4-.6-.1-1.1-.9-1.1-.9-.1-2-.3-2.6-.4-.5-.1-2.5-.3-4.4-.4-2.2-.1-4.3-1-6-2.8-2.4-2.3-3-2.5-4.7-1.5-2.3 1.5-5.7.7-7.7-1.7-.8-1-1.1-1-.6-.2.6 1.1.3 1.3-1.2.7-1-.5-3.7-1-5.9-1.3l-4-.4 5.5 2.7zM281 293.9c-3.7 1.9-5.1 5.3-6.5 15.8-.3 2.6-.8 5.5-1 6.3-.2.8-.6 3.3-1 5.5-.3 2.2-1 6.7-1.6 10-.6 3.3-1.3 6.9-1.4 8-1.1 6.2-3.6 21.4-4 23.5-.2 1.4-2.5 14.9-5 30s-4.8 28.6-5 30c-.2 1.4-1.1 6.8-2 12-.9 5.2-1.8 10.6-2 12-.5 3.3-5.6 33-6.1 35.5-.2 1.1-.7 4.5-1 7.6-.5 5-.3 5.9 1.9 8.5l2.5 2.9 19.5.3c26.4.5 26.6.4 28.7-15.3 1.5-11.7 1.9-14.5 2.5-17.5.3-1.4.7-4.5 1-7 .3-2.5 1-7.2 1.5-10.5s1.2-8.3 1.5-11c.3-2.8.8-5.9 1-7 .2-1.1.7-4 1-6.5 1-7.4 1.1-7.9 1.6-8.4.3-.3 2.6 3.6 5.2 8.7s8 15.5 12 23.2c4 7.7 11 21.2 15.6 30 11.3 21.6 11.7 22.2 15.4 23.4 3.6 1.2 11.5.5 13.5-1.1 1.7-1.5 13-22.8 38.4-72.6 3.5-6.7 6.7-12.2 7.1-12.2.5 0 .6.3.4.7-.3.5.1 4.2.8 8.3.7 4.1 1.5 9.7 1.9 12.5.3 2.7 1.2 9.3 2 14.5 1.7 11 2 12.5 4.1 28 .9 6.3 2.2 12.9 3 14.7 2.1 4.8 5.9 5.5 27.2 5.1 17.6-.3 18.2-.4 20.7-2.7 1.8-1.7 2.6-3.5 2.6-5.8 0-2.7-5.2-35.6-8.6-54.3-.2-1.4-.9-5.4-1.4-9-1.5-8.8-1.7-10.1-3.5-20.5-.9-5-1.8-10.6-2.1-12.5-.3-1.9-.7-4.6-1-6-.2-1.4-.7-3.9-1-5.5-.2-1.7-1-5.7-1.5-9-.6-3.3-1.3-7.1-1.5-8.5-.3-2.5-2.1-13.2-3-18-.2-1.4-.7-4.1-1-6-3.8-23.4-7.6-45-8.4-46.8-2.3-5.2-14.2-6.5-18.6-2-1.2 1.3-4.3 6.3-6.9 11.3-2.7 4.9-6.5 12.1-8.7 15.8-2.1 3.8-3.8 7-3.8 7.3 0 .2-2.6 5.2-5.8 11.1-3.3 5.9-8 14.8-10.7 19.8-2.6 4.9-6.1 11.5-7.8 14.5-5.6 10.4-8.4 15.5-14.6 27.3-3.5 6.5-6.4 11.7-6.6 11.5-.3-.3-12.9-23.7-25.5-47.3-2.9-5.5-7.8-14.5-10.8-20-3-5.5-5.8-10.9-6.3-12-.5-1.1-3.2-6.1-5.9-11-2.7-5-6.7-12.3-8.7-16.3-5.6-10.9-8.8-14.2-14.3-14.7-3.2-.3-5.6.1-8 1.4z"/><path d="M511 297.1c-1.7 1.1-3.5 3.1-4 4.5-1.6 4.1-1.3 191.2.3 194.4 2.5 5.1 6.3 5.9 26.6 5.9 15.2 0 19-.3 21.2-1.6 5.3-3.1 5.4-3.7 5.5-43.2.1-20.1.2-37 .3-37.5.1-.7 19.1 24.6 26.4 35.1 9.5 13.7 32.4 43.7 34.5 45.1 2.1 1.4 5.8 1.6 23.6 1.7 11.6.1 22.4-.2 24.1-.7 4.2-1.1 6.6-3.9 7.1-8.4.7-5 1.9-3.3-37.9-55-18.1-23.5-33.1-43.2-33.3-43.9-.3-.7 13.9-19.2 31.4-41.2 17.6-22 32.5-41 33.1-42.1 2.6-4.9.5-11.3-4.4-13.6-2.5-1.2-7.1-1.5-22.8-1.4-16.8.1-20 .3-22.5 1.8-1.6 1-15.4 17.4-30.6 36.4-15.3 19-28.1 34.8-28.4 35-.4.2-.7-13.8-.7-31.2.1-21-.3-32.9-1-35.1-2.1-6.2-5.1-7-26.6-6.9-16.5 0-19.1.3-21.9 1.9zM1062.1 404c1.4 3.1 1.9 3.6 1.9 2.4 0-.6-.7-1.9-1.6-3-1.4-1.8-1.4-1.8-.3.6zM1077.5 464.9c-.4 1.3-.5 2.3-.3 2.4.1.1 1.3 1 2.5 2.1 2.1 1.7 2.1 1.7 1.6-.3-.3-1.2-1-2.1-1.5-2.1s-.7-.4-.4-.8c.2-.4.1-1.4-.4-2.1-.6-1-1-.8-1.5.8zM275.7 510.6c-.1.1-3.6.4-7.8.7-12.6.8-19.2 5-23 14.7-1.1 2.8-1.4 17.1-1.6 74.5-.3 62.1-.1 71.8 1.3 77 2.6 9.8 7.3 14.3 17 16.2 4.9 1 30.5 1 36.1.1 10.9-1.8 16.3-8.2 17.9-21.3.8-6.4 1.3-52.8.6-55.8-.4-1.6-1.6-1.8-12.6-1.5l-12.1.3-.5 25.5c-.3 14-.9 26.3-1.3 27.2-1.1 2.1-5.1 3.5-9.7 3.3-6.5-.3-8.7-1.3-9.9-4.6-1.5-4.4-1.5-123.3 0-127.7 1.3-3.8 6-5.6 12.6-4.8 7.9.9 7.8.3 8.1 29.2l.3 25.5 12.7-.3 12.7-.3-.1-24c-.1-13.2-.4-26.6-.7-29.9-1.8-15.9-7-21.6-21.2-23.1-5.7-.6-18.4-1.2-18.8-.9zM369 511.1c-11.3 1-17.4 4-20.8 10.4-3.5 6.7-3.8 14.7-3.9 93.6l-.1 77.5h25.6v-19.2c0-10.6.3-19.7.5-20.1.4-.6 14.3-.9 20.3-.4.8.1 1.2 4.6 1.2 15.3 0 8.4.1 17.3.1 19.9l.1 4.5h12.8l12.7-.1v-162l-2.5-6c-3.2-7.5-7.8-10.9-17-12.4-8.5-1.4-19.7-1.8-29-1zm19.2 24.4c.9.3 2 1.4 2.4 2.3.4.9.9 22.3 1 47.4l.2 45.8H370l-.1-6.3c-.3-43.8.2-84.9 1.1-86.7.6-1.2 2.1-2.5 3.3-3 2.4-.9 11.3-.6 13.9.5zM907.7 510.6c-.1.1-3.8.4-8.2.7-12.4.9-18 4-21.6 12.3-1.1 2.3-2.2 6.8-2.6 10.1-.9 7.5-.9 129.8 0 138 1.4 13.6 7.6 20.5 20 22.1 7.2.9 37.8.8 46-.2l6.7-.8V588.2l-12.2.2-12.3.1-.1 40.7c0 22.5-.4 41.1-.7 41.5-1.1 1-13.9 1.1-16.9.1-5.1-1.8-5.1-2.2-5.1-68.7 0-45.7.4-62.3 1.2-64 1.6-3 4.9-4.1 11.2-3.6 8.3.5 9.3 2.1 9.5 15.7.1 6.2.3 12.1.3 13 .1 1.6 1.4 1.8 12.7 1.8h12.6l-.5-17.3c-.5-19.7-1.9-25.5-6.9-30.4-4.1-4-11.9-6.1-24.1-6.5-4.8-.2-8.9-.3-9-.2zM437 524v11h20v157.7h26V535.1l9.8-.3 9.7-.3v-10.8l.1-10.7H437v11zM526.5 602.7v89.8h51l.3-11.2.3-11.2-12.8-.3-12.8-.3v-43.3c0-23.9.2-43.7.5-44.1.3-.4 5.7-.7 12-.6h11.5l.3-10.3c.2-9.2.1-10.2-1.5-10.3-1-.1-6.4-.1-12-.1-7 0-10.3-.4-10.4-1.2-.1-.6-.2-6.4-.3-12.9-.1-11 0-11.7 1.9-11.8 1.1-.1 6.7-.2 12.5-.3l10.5-.1v-10.8l.1-10.7h-51.2l.1 89.7zM604.6 601.7c0 48.8.2 89.3.2 89.9.3 1.5 25.1 1.5 25.3 0 .1-.6.2-20.5.3-44.1l.1-43h9.2c5.5 0 9.7.5 10.3 1.1 2.5 2.5 3 10.4 3 48v39.2l13-.1c12.3-.1 13-.3 13-2.2.6-22.9-.1-78.3-1-81.7-1.9-7.1-4.8-10.8-10.4-13.3l-5-2.2 3.4-1.2c6-2 10.1-6.6 12.1-13.2.9-3.4 1.2-35.2.4-43.9-1.1-10.3-6.2-17.5-14.2-20.1-2.5-.8-13.8-1.4-31.8-1.6l-28.1-.5.2 88.9zm45-64.2c2.9 1.9 3.3 4.4 3.3 22.5 0 22.5-.7 23.5-15.9 22.8l-6.5-.3v-22.9c0-21.3.1-22.9 1.8-23.5 3-1.1 14.9-.2 17.3 1.4zM709 602.8v89.8h13c11.1.1 13-.2 13.1-1.5.1-.9.2-41.3.2-89.8l.2-88.3H709v89.8zM766.9 515.2c-.1 3-.1 173.8 0 175.9.1 1.4 1.5 1.6 10.5 1.5 5.7 0 10.7-.4 11.1-.8.4-.4.7-25.4.7-55.7 0-30.3.1-55.1.3-55.1.5 0 2.8 8.6 7.5 28 2.3 9.6 7.2 30.1 11 45.5 3.7 15.4 7.1 29.6 7.6 31.5.4 1.9.9 3.8 1 4.2.1.5.2 1.2.3 1.6 0 .5 6.4.9 14.1.9h14v-10.8c0-6 .1-23.7.1-39.4s-.1-51.2-.1-79V513h-22.6l.1 56.2c0 31-.1 57-.4 57.8-.4 1.2-1.9-4.6-6.5-25.5-.3-1.1-2.5-11-5-22-9.9-43.7-14.6-65-14.6-65.7 0-.5-6.5-.8-14.5-.8-14.3 0-14.5 0-14.6 2.2zM242 708.6v2.2h356.5l356.5-.1v-4.2H242v2.1zM265.5 723.8c-.6.4-2.6 4.7-4.5 9.5-1.8 4.8-3.6 9-4 9.2-.3.2-1.7-3.9-2.9-9.1l-2.3-9.4h-6.6l1 3.7c1.1 4.4 3.8 13.8 6.8 24 1.1 4 2.5 7.3 3 7.3.4 0 2.8-5 5.1-11 2.4-6.1 4.6-11 4.9-11 .3 0 1.6 2.8 2.9 6.2 3.6 9.8 6.4 15.8 7.2 15.8.4 0 1-.8 1.3-1.8 3.9-13.1 8.6-30.6 8.6-31.8 0-.9-1-1.4-2.9-1.4-2.9 0-3 .2-5.2 9.5-1.3 5.2-2.5 9.5-2.9 9.5-.3 0-1.5-2.8-2.8-6.3-3.6-9.9-5.6-13.7-6.7-12.9zM408.3 724.2c-.5.7-.9 8.5-.8 17.3v16l3.3.3 3.2.3v-21.6l4.8 5.1c2.6 2.8 7.3 8 10.4 11.4 3.1 3.4 6.1 6 6.5 5.7.5-.3.8-8.1.8-17.4v-16.8l-3.2-.3-3.3-.3v10.3l-.1 10.3-10.3-10.8c-7.6-7.9-10.6-10.4-11.3-9.5zM455.5 724.3c-11.5 3.7-16.3 17.1-9.5 26.5 1.6 2.3 4.4 4.9 6.2 5.8 3.9 2 14 2.3 16.3.4.8-.7 1.5-.9 1.5-.5s.7.2 1.5-.5c1.1-.9 1.4-3 1.3-7.9l-.3-6.6-5.2-.3c-3.2-.2-5.4.1-5.4.7-.5 3.8-.2 4.6 1.6 5 5.1.9 3.3 5.1-2.2 5.1-9.1 0-14.3-9.2-9.6-17 2.9-5 8.8-6.3 14.4-3.4 2.9 1.4 3.2 1.4 4.5-.3 1.8-2.4 1.7-2.7-.3-4.5-3.4-3-9.9-4.1-14.8-2.5zM496.9 724.8c-4.8 2.4-5.8 5.9-3.1 11.1 2 3.9 2.1 4.1.3 5.3-4.1 2.9-5.4 9.5-2.6 13.5 2.9 4.1 11.2 5 16.3 1.7 2.1-1.4 2.5-1.3 5.1.5 2.8 2 2.8 2 4.6.1 1.8-2 1.8-2.1-.7-4.8-2.3-2.5-2.4-2.9-1.2-5.7 1.9-4.3 1.7-6.2-.8-6.8-2.6-.7-2.7-.6-3.3 2.3-.7 3.4-1.3 3.6-4 1-2.5-2.3-2.5-2.4-.6-4.4 3.4-3.8 4.2-6.2 3-9.4-1.7-5-7.7-7-13-4.4zm6.9 4.4c1.7 1.7 1.5 3.8-.5 6-1.5 1.7-1.7 1.7-3.5.2-2.1-1.9-2.4-6-.5-6.7 2.1-.9 3.2-.8 4.5.5zm1.5 22.5c-5.5 4.1-13-2.1-8.1-6.7l2.2-2 3.8 3.7c3.5 3.5 3.7 3.9 2.1 5zM625.2 723.9c-.5.3-.9 8.1-.9 17.3V758H630.6l-.1-9.6c0-5.2.2-9.9.5-10.3.3-.5 4.9 4.1 10.3 10 5.5 6 10.3 10.7 10.8 10.3.5-.3.9-8.1.9-17.5V724h-6.5l.1 10.6.1 10.6-4-4.4c-11.7-12.6-16.7-17.4-17.5-16.9zM690.5 724.6c-2.2.7-4.1 1.4-4.1 1.4-1 .1-2.4 6.6-1.9 8.9.6 2.9 5.5 8.1 7.7 8.1 2.4 0 6.8 4.2 6.8 6.5 0 3.4-3.9 4.3-8.7 2-3.5-1.7-3.7-1.7-5 .1-1.9 2.6-1.7 3.2 1.9 5 4 2.1 10.8 2.3 14.2.5 3.6-2 5.6-6.6 4.5-10.4-1.1-4-1.8-4.6-8.7-8.2-4.5-2.4-5.8-3.6-6-5.7-.4-3.6 3.2-4.7 7.9-2.3 3.1 1.7 3.3 1.6 4.6-.1 1.7-2.3 1.3-3.6-1.8-5.1-4-2-7.3-2.2-11.4-.7zM733.8 724.1c-4.4 1.2-8.7 4.8-10.9 9.2-4.2 8.2-.8 19.1 7.4 23.3 4.4 2.3 11.7 2.3 16.1-.1 3.9-2.1 4.4-3.5 2-5.9-1.4-1.4-1.8-1.4-4.4-.1-8 4.1-16-1-16-10.2.1-6 4.7-10.3 11.2-10.3 1.9 0 4.3.6 5.4 1.4 1.7 1.3 2.1 1.2 3.7-.1 2.4-2.2 2.1-3.6-1-5.5-3.3-1.9-9.8-2.7-13.5-1.7zM936.7 724.9c-3.9 2-5.9 5.7-5.2 9.5.7 3.8 3 6.3 8 8.8 5.6 2.9 7.4 4.6 6.8 6.9-.8 2.9-5 3.5-9.1 1.3-3.3-1.8-3.4-1.8-4.8.1-2 2.7-1.8 3.2 1.5 5 10.6 5.4 22.1-1.2 18.8-10.8-.9-2.7-7-7.7-9.3-7.7-2 0-5.4-3.7-5.4-5.8 0-3 3.9-3.8 8.1-1.7 3.1 1.7 3.3 1.6 4.6-.1 1.8-2.4 1.3-3.6-2.3-5.3-4-2-8-2.1-11.7-.2zM292 741v17.1l10.8-.3c10.7-.3 10.7-.3 10.7-2.8 0-2.4-.2-2.5-6.8-2.6-3.7-.1-7.1-.4-7.5-.8-.4-.4-.7-2.3-.7-4.2-.1-3.7 0-3.7 8.1-3.5 4.4.1 5.5-1 4.5-4.4-.5-1.7-1.5-2-6.6-2h-6v-7l7.4-.5c7.2-.5 7.5-.6 7.8-3.3l.4-2.7H292v17zM320.8 725.2c-.3 1.1-.2 29.6.1 32 .1.5 3.7.8 8.1.8 11.4 0 17.1-3.1 19.8-11 3.2-9-.6-17.9-9.1-21.5-4.6-1.9-18.3-2.1-18.9-.3zm17 6.2c4.5 2.3 6.1 6.6 4.8 12.9-.9 4.8-5.3 7.7-11.3 7.7H327v-22h4c2.3 0 5.3.6 6.8 1.4zM356.9 724.7c-.1.4-.2 8.1-.3 17l-.1 16.3h8.3c11.1 0 15.7-2.4 19.9-10.4 2.1-4 1.2-11.6-1.8-16-3.7-5.5-8.1-7.3-17.6-7.5-4.6-.1-8.4.1-8.4.6zm19.2 9c2 2.3 2.9 4.4 2.9 6.8 0 7.4-4.3 11.5-12 11.5h-4v-22.1l5.1.2c4.3.2 5.4.7 8 3.6zM392.7 724.7c-.2.5-.3 8-.3 16.8l.1 16 3.3.3 3.2.3V724h-2.9c-1.7 0-3.2.3-3.4.7zM535 741v17.1l10.8-.3c10.3-.3 10.7-.4 10.8-2.5.1-2.5-2-3.6-6.4-3.3-1.5.1-4.2.2-5.9.1-3.2-.1-3.3-.3-3.3-4.1 0-4.4-.2-4.3 9.8-4.2 3.1 0 3.3-.1 3-3.1l-.3-3.1-6.2.2-6.3.1V730h15.7l-.2-2.8-.1-2.7-10.7-.3-10.7-.3V741zM559.5 726c.4 1.2 2.7 6.5 5.2 11.8 2.5 5.3 5.6 12 6.9 14.9 2.9 6.2 4.1 7.2 5.3 4.1.5-1.3 2.8-6.4 5.1-11.3 6.3-13.5 9-19.7 9-20.6 0-.5-1.5-.9-3.3-.9-2.9 0-3.5.4-4.7 3.7-.7 2.1-2.8 6.9-4.6 10.8l-3.3 7-4-9c-5.5-12.2-5.4-12-9-12.3-2.9-.3-3.2-.1-2.6 1.8zM595.9 724.2c0 .2-.1 7.7-.2 16.8l-.1 16.5 10.7.3c6.8.2 10.7-.1 10.8-.8.6-4.5.6-4.5-5.6-4.7-3.3-.1-6.8-.2-7.7-.2-1.4-.1-1.8-1-1.8-4.1 0-2.5.5-4 1.3-4.1.6 0 3.5-.1 6.2-.2 4.7-.2 5-.4 5.3-3 .4-2.9-.3-3.1-9-2.7-3.8.2-3.8.2-3.8-3.9V730h7.4c6.2 0 7.4-.3 7.8-1.8 1-3.8 0-4.2-10.8-4.2-5.7 0-10.4.1-10.5.2zM658 726.9c0 2.8.3 3 4.3 3.3l4.2.3v27l3.3.3 3.2.3V730h4c3.8 0 4-.2 4-3v-3h-23v2.9zM766.1 726.2c-.9 2.2-4.6 10.3-11 24-1.7 3.6-3.1 6.8-3.1 7.1 0 .3.9.7 2.1 1 2 .5 4.2-1 6.4-4.6 1-1.5 4-2 11.6-1.8 3.1.1 3.9.6 4.9 3.1 1 2.4 1.9 3 4.1 3 1.6 0 2.9-.4 2.9-.9 0-2.4-14.6-33.1-15.8-33.1-.7 0-1.6 1-2.1 2.2zm6.2 19.2c.2 1.1-5.8 1.5-7.4.6-.6-.4-.1-2.5 1.2-5.5l2.1-4.8 2 4.4c1.1 2.4 2 4.8 2.1 5.3zM783.7 724.7c-.4.3-.7 1.7-.7 2.9 0 2 .6 2.3 4.3 2.6l4.2.3v27l3.3.3 3.2.3V730h3.9c2.8 0 4-.5 4.3-1.8 1-3.8 0-4.2-11.1-4.2-5.9 0-11.1.3-11.4.7zM811.7 724.7c-.2.5-.3 8-.3 16.8l.1 16 10.8.3 10.7.3v-6l-7.2.2c-6.9.1-7.2 0-7.8-2.3-.4-1.4-.4-3.3-.2-4.3.5-1.8.8-1.9 8.2-1.9 4.3 0 4.6-.1 4.8-2.9.2-3.1-.7-3.4-9.4-2.9-2.8.1-3.2-.2-3.6-2.8-.7-4.8-.2-5.2 7.8-5.2h7.4v-6h-10.4c-5.8 0-10.7.3-10.9.7zM840 741v17.1l3.2-.3 3.2-.3-.1-6.3c0-6.1 0-6.2 2.7-6.2 2.4 0 3.2.9 6 6.5 3 6.1 3.4 6.5 6.6 6.5 1.9 0 3.4-.3 3.4-.7 0-.3-1.5-3.4-3.4-6.8l-3.4-6.3 2.3-1.2c5.4-2.9 6.3-10.9 1.9-15.7-2.4-2.6-3.1-2.8-12.5-3.1l-9.9-.4V741zm17.4-9.4c2 2 2 4.8 0 6.5-1.6 1.3-10.3 2.1-10.5 1-.4-1.8-.5-7.7-.2-8.4.8-1.4 9.1-.7 10.7.9zM872.4 740.7l.1 16.8 10.8.3 10.8.3-.3-2.8c-.3-2.7-.4-2.8-7.2-3-7.6-.1-8.6-.9-7.7-5.5.6-3 .8-3.1 6.5-3.2 5.3-.1 5.9-.3 6.2-2.3.5-3-1-3.7-7.2-3.4l-5.2.2-.4-3.6c-.2-2-.2-3.8.1-4 .2-.3 3.7-.5 7.8-.5h7.3v-6H872.3l.1 16.7zM901 741v17h3c3.2 0 3.2.1 3.3-8.8 0-3.9.2-4.2 2.7-4.2 2.4 0 3.2.8 5.9 6.5 3 6.1 3.3 6.5 6.6 6.5 1.9 0 3.5-.3 3.5-.7 0-.3-1.6-3.4-3.5-6.8l-3.4-6.2 2.3-1.3c3-1.6 4.9-5.1 4.8-8.9-.2-7.4-4.6-10.1-16.7-10.1H901v17zm17.4-9.4c3.9 3.9.5 8-6.6 7.9l-4.3-.1-.1-3.9c-.1-2.2.1-4.3.3-4.8.8-1.4 9.1-.7 10.7.9z"/></svg>